<?xml version="1.0" encoding="UTF-8"?><svg id="a" xmlns="http://www.w3.org/2000/svg" viewBox="0 0 273.07 264.1"><defs><style>.b{fill:#fff;}.c{fill:#0f3d84;}</style></defs><path class="c" d="m187.31,65H34.74c-8.93,0-16.03,7.2-16.03,16.13v152.47c0,8.83,7.2,16.03,16.03,16.03h152.56c8.83,0,16.03-7.2,16.03-16.03V81.04c0-8.83-7.2-16.03-16.03-16.03Zm48.39-35.62h-29.19c-1.73,0-3.07,1.44-3.07,3.07v29.19c0,1.73,1.34,3.07,3.07,3.07h29.19c1.73,0,3.07-1.34,3.07-3.07v-29.19c0-1.73-1.34-3.07-3.07-3.07Zm-59.53,9.12h14.21c.86,0,1.54-.67,1.54-1.54v-14.21c0-.86-.67-1.54-1.54-1.54h-14.21c-.77,0-1.44.67-1.54,1.44v14.31c0,.86.67,1.54,1.54,1.54Zm76.71-23.91h-6.82c-.48,0-.77.38-.67.77v6.72c0,.38.29.67.67.67h6.82c.38,0,.67-.29.67-.67v-6.82c0-.38-.29-.67-.67-.67Z"/><path class="b" d="m58.17,222.37v-64.9h-12.39v64.9h12.39Z"/><path class="b" d="m118.85,190.88v-4.22c.1-8.64.29-16.61-6.43-23.23-4.22-4.13-10.18-5.95-16.71-5.95h-22.85v64.9h22.85c6.62,0,12.58-1.82,16.71-5.95,7.2-7.01,6.43-16.13,6.43-25.54Zm-12.39,0c0,9.51-.38,13.92-2.69,16.71-2.11,2.5-4.99,3.84-9.22,3.84h-9.31v-43.11h9.31c4.22,0,7.1,1.34,9.22,3.84,2.21,2.59,2.59,6.24,2.69,14.4v4.32Z"/><path class="b" d="m179.62,222.37l-14.31-29.38c6.14-2.21,11.52-7.58,11.52-16.42,0-10.47-7.68-19.11-20.55-19.11h-24.77v64.9h12.39v-27.36h8.93l12.58,27.36h14.21Zm-15.17-45.8c0,4.8-3.55,8.26-9.03,8.26h-11.52v-16.51h11.62c5.38.1,8.93,3.46,8.93,8.26Z"/></svg>