<svg width="24" height="24" viewBox="0 0 24 24" fill="none" xmlns="http://www.w3.org/2000/svg">
<mask id="path-1-inside-1_55335_16604" fill="white">
<rect width="17" height="18" rx="1"/>
</mask>
<rect width="17" height="18" rx="1" stroke="#313033" stroke-width="4" mask="url(#path-1-inside-1_55335_16604)"/>
<mask id="path-2-inside-2_55335_16604" fill="white">
<rect x="18" width="6" height="11" rx="1"/>
</mask>
<rect x="18" width="6" height="11" rx="1" stroke="#313033" stroke-width="4" mask="url(#path-2-inside-2_55335_16604)"/>
<mask id="path-3-inside-3_55335_16604" fill="white">
<rect x="18" y="12" width="6" height="12" rx="1"/>
</mask>
<rect x="18" y="12" width="6" height="12" rx="1" stroke="#313033" stroke-width="4" mask="url(#path-3-inside-3_55335_16604)"/>
<mask id="path-4-inside-4_55335_16604" fill="white">
<rect y="19" width="17" height="5" rx="1"/>
</mask>
<rect y="19" width="17" height="5" rx="1" stroke="#313033" stroke-width="4" mask="url(#path-4-inside-4_55335_16604)"/>
<path d="M6.93945 4.04688V14H4.88867V4.04688H6.93945ZM12.9004 4.04688L8.95605 8.96191L6.67969 11.4092L6.31055 9.46777L7.84863 7.3623L10.3848 4.04688H12.9004ZM10.5693 14L7.63672 9.39941L9.1543 8.12793L12.9961 14H10.5693Z" fill="#313033"/>
</svg>
