<svg width="24" height="24" viewBox="0 0 24 24" fill="none" xmlns="http://www.w3.org/2000/svg">
<mask id="path-1-inside-1_53726_68708" fill="white">
<rect width="17" height="18" rx="1"/>
</mask>
<rect width="17" height="18" rx="1" stroke="currentColor" stroke-width="4" mask="url(#path-1-inside-1_53726_68708)"/>
<mask id="path-2-inside-2_53726_68708" fill="white">
<rect x="18" width="6" height="11" rx="1"/>
</mask>
<rect x="18" width="6" height="11" rx="1" stroke="currentColor" stroke-width="4" mask="url(#path-2-inside-2_53726_68708)"/>
<mask id="path-3-inside-3_53726_68708" fill="white">
<rect x="18" y="12" width="6" height="12" rx="1"/>
</mask>
<rect x="18" y="12" width="6" height="12" rx="1" stroke="currentColor" stroke-width="4" mask="url(#path-3-inside-3_53726_68708)"/>
<mask id="path-4-inside-4_53726_68708" fill="white">
<rect y="19" width="17" height="5" rx="1"/>
</mask>
<rect y="19" width="17" height="5" rx="1" stroke="currentColor" stroke-width="4" mask="url(#path-4-inside-4_53726_68708)"/>
<path d="M10.0703 11.3955C10.0703 11.2178 10.043 11.0583 9.98828 10.917C9.93815 10.7712 9.84245 10.639 9.70117 10.5205C9.5599 10.3975 9.36165 10.2767 9.10645 10.1582C8.85124 10.0397 8.52083 9.91667 8.11523 9.78906C7.66406 9.64323 7.23568 9.47917 6.83008 9.29688C6.42904 9.11458 6.07357 8.90267 5.76367 8.66113C5.45833 8.41504 5.2168 8.13021 5.03906 7.80664C4.86589 7.48307 4.7793 7.1071 4.7793 6.67871C4.7793 6.264 4.87044 5.88802 5.05273 5.55078C5.23503 5.20898 5.49023 4.91732 5.81836 4.67578C6.14648 4.42969 6.53385 4.24056 6.98047 4.1084C7.43164 3.97624 7.92611 3.91016 8.46387 3.91016C9.19759 3.91016 9.83789 4.04232 10.3848 4.30664C10.9316 4.57096 11.3555 4.93327 11.6562 5.39355C11.9616 5.85384 12.1143 6.38021 12.1143 6.97266H10.0771C10.0771 6.68099 10.0156 6.42578 9.89258 6.20703C9.77409 5.98372 9.5918 5.80827 9.3457 5.68066C9.10417 5.55306 8.79883 5.48926 8.42969 5.48926C8.07422 5.48926 7.77799 5.54395 7.54102 5.65332C7.30404 5.75814 7.1263 5.90169 7.00781 6.08398C6.88932 6.26172 6.83008 6.46224 6.83008 6.68555C6.83008 6.85417 6.87109 7.00684 6.95312 7.14355C7.03971 7.28027 7.16732 7.40788 7.33594 7.52637C7.50456 7.64486 7.71191 7.75651 7.95801 7.86133C8.2041 7.96615 8.48893 8.06868 8.8125 8.16895C9.35482 8.33301 9.83105 8.51758 10.2412 8.72266C10.6559 8.92773 11.0023 9.15788 11.2803 9.41309C11.5583 9.66829 11.7679 9.95768 11.9092 10.2812C12.0505 10.6048 12.1211 10.9717 12.1211 11.3818C12.1211 11.8148 12.0368 12.2021 11.8682 12.5439C11.6995 12.8857 11.4557 13.1751 11.1367 13.4121C10.8177 13.6491 10.4372 13.8291 9.99512 13.9521C9.55306 14.0752 9.05859 14.1367 8.51172 14.1367C8.01953 14.1367 7.53418 14.0729 7.05566 13.9453C6.57715 13.8132 6.14193 13.6149 5.75 13.3506C5.36263 13.0863 5.05273 12.749 4.82031 12.3389C4.58789 11.9287 4.47168 11.4434 4.47168 10.8828H6.5293C6.5293 11.1927 6.57715 11.4548 6.67285 11.6689C6.76855 11.8831 6.90299 12.0563 7.07617 12.1885C7.25391 12.3206 7.46354 12.4163 7.70508 12.4756C7.95117 12.5348 8.22005 12.5645 8.51172 12.5645C8.86719 12.5645 9.15885 12.5143 9.38672 12.4141C9.61914 12.3138 9.79004 12.1748 9.89941 11.9971C10.0133 11.8193 10.0703 11.6188 10.0703 11.3955Z" fill="currentColor"/>
</svg>
