<svg width="48" height="48" viewBox="0 0 48 48" fill="none" xmlns="http://www.w3.org/2000/svg">
<g clip-path="url(#clip0_53647_46182)">
<mask id="mask0_53647_46182" style="mask-type:alpha" maskUnits="userSpaceOnUse" x="12" y="12" width="24" height="24">
<rect x="12" y="12" width="24" height="24" fill="#D9D9D9"/>
</mask>
<g mask="url(#mask0_53647_46182)">
<path d="M16 31V29H18V22C18 20.6167 18.4167 19.3875 19.25 18.3125C20.0833 17.2375 21.1667 16.5333 22.5 16.2V15.5C22.5 15.0833 22.6458 14.7292 22.9375 14.4375C23.2292 14.1458 23.5833 14 24 14C24.4167 14 24.7708 14.1458 25.0625 14.4375C25.3542 14.7292 25.5 15.0833 25.5 15.5V16.2C26.8333 16.5333 27.9167 17.2375 28.75 18.3125C29.5833 19.3875 30 20.6167 30 22V29H32V31H16ZM24 34C23.45 34 22.9792 33.8042 22.5875 33.4125C22.1958 33.0208 22 32.55 22 32H26C26 32.55 25.8042 33.0208 25.4125 33.4125C25.0208 33.8042 24.55 34 24 34ZM20 29H28V22C28 20.9 27.6083 19.9583 26.825 19.175C26.0417 18.3917 25.1 18 24 18C22.9 18 21.9583 18.3917 21.175 19.175C20.3917 19.9583 20 20.9 20 22V29Z" fill="#313033"/>
</g>
</g>
<defs>
<clipPath id="clip0_53647_46182">
<rect x="4" y="4" width="40" height="40" rx="20" fill="white"/>
</clipPath>
</defs>
</svg>
